<svg xmlns="http://www.w3.org/2000/svg" viewBox="17 -15 166 260">
  <title>Knights of the Higher Order Ministries brand mark (full - monochrome-dark)</title>
  <defs>
    <radialGradient id="hotspot" cx="50%" cy="50%" r="50%">
      <stop offset="0%" stop-color="#000000" stop-opacity="1" />
      <stop offset="15%" stop-color="rgba(0,0,0,0.85)" />
      <stop offset="35%" stop-color="rgba(0,0,0,0.55)" />
      <stop offset="65%" stop-color="rgba(0,0,0,0.18)" />
      <stop offset="100%" stop-color="rgba(0,0,0,0)" />
    </radialGradient>
    <filter id="soften" x="-50%" y="-50%" width="200%" height="200%">
      <feGaussianBlur stdDeviation="3.2" />
    </filter>
    <filter id="starburstBlur" x="-50%" y="-50%" width="200%" height="200%">
      <feGaussianBlur stdDeviation="1.6" />
    </filter>
  </defs>

  <!-- Subtle starburst behind the cross -->
  <g filter="url(#starburstBlur)">
    <polygon points="100.00,2.00 104.27,36.31 118.03,4.59 112.46,38.71 134.60,12.16 119.65,43.33 148.37,24.09 125.24,49.78 158.22,39.41 128.78,57.55 163.35,56.89 130.00,66.00 163.35,75.11 128.78,74.45 158.22,92.59 125.24,82.22 148.37,107.91 119.65,88.67 134.60,119.84 112.46,93.29 118.03,127.41 104.27,95.69 100.00,130.00 95.73,95.69 81.97,127.41 87.54,93.29 65.40,119.84 80.35,88.67 51.63,107.91 74.76,82.22 41.78,92.59 71.22,74.45 36.65,75.11 70.00,66.00 36.65,56.89 71.22,57.55 41.78,39.41 74.76,49.78 51.63,24.09 80.35,43.33 65.40,12.16 87.54,38.71 81.97,4.59 95.73,36.31" fill="#000000" fill-opacity="0.2" />
    <polygon points="106.55,20.47 104.51,50.65 119.11,24.16 108.65,52.54 130.12,31.24 112.09,55.52 138.70,41.13 114.55,59.35 144.14,53.04 115.84,63.72 146.00,66.00 115.84,68.28 144.14,78.96 114.55,72.65 138.70,90.87 112.09,76.48 130.12,100.76 108.65,79.46 119.11,107.84 104.51,81.35 106.55,111.53 100.00,82.00 93.45,111.53 95.49,81.35 80.89,107.84 91.35,79.46 69.88,100.76 87.91,76.48 61.30,90.87 85.45,72.65 55.86,78.96 84.16,68.28 54.00,66.00 84.16,63.72 55.86,53.04 85.45,59.35 61.30,41.13 87.91,55.52 69.88,31.24 91.35,52.54 80.89,24.16 95.49,50.65 93.45,20.47 100.00,50.00" fill="#000000" fill-opacity="0.3" />
  </g>

  <!-- Soft glow hugging the edges of the cross -->
  <g filter="url(#soften)">
    <path fill="#000000" d="M 86.50 8.00 L 113.50 8.00 Q 116.00 8.00 115.62 10.47 L 109.38 50.53 Q 109.00 53.00 109.00 55.50 L 109.00 76.50 Q 109.00 79.00 109.15 81.50 L 115.85 191.50 Q 116.00 194.00 113.50 194.00 L 86.50 194.00 Q 84.00 194.00 84.15 191.50 L 90.85 81.50 Q 91.00 79.00 91.00 76.50 L 91.00 55.50 Q 91.00 53.00 90.62 50.53 L 84.38 10.47 Q 84.00 8.00 86.50 8.00 Z" />
    <path fill="#000000" d="M 35.00 50.50 L 35.00 81.50 Q 35.00 84.00 37.47 83.65 L 88.53 76.35 Q 91.00 76.00 93.50 76.00 L 106.50 76.00 Q 109.00 76.00 111.47 76.35 L 162.53 83.65 Q 165.00 84.00 165.00 81.50 L 165.00 50.50 Q 165.00 48.00 162.53 48.35 L 111.47 55.65 Q 109.00 56.00 106.50 56.00 L 93.50 56.00 Q 91.00 56.00 88.53 55.65 L 37.47 48.35 Q 35.00 48.00 35.00 50.50 Z" />
  </g>

  <!-- Crisp cross body -->
  <path fill="#000000" d="M 86.50 8.00 L 113.50 8.00 Q 116.00 8.00 115.62 10.47 L 109.38 50.53 Q 109.00 53.00 109.00 55.50 L 109.00 76.50 Q 109.00 79.00 109.15 81.50 L 115.85 191.50 Q 116.00 194.00 113.50 194.00 L 86.50 194.00 Q 84.00 194.00 84.15 191.50 L 90.85 81.50 Q 91.00 79.00 91.00 76.50 L 91.00 55.50 Q 91.00 53.00 90.62 50.53 L 84.38 10.47 Q 84.00 8.00 86.50 8.00 Z" />
  <path fill="#000000" d="M 35.00 50.50 L 35.00 81.50 Q 35.00 84.00 37.47 83.65 L 88.53 76.35 Q 91.00 76.00 93.50 76.00 L 106.50 76.00 Q 109.00 76.00 111.47 76.35 L 162.53 83.65 Q 165.00 84.00 165.00 81.50 L 165.00 50.50 Q 165.00 48.00 162.53 48.35 L 111.47 55.65 Q 109.00 56.00 106.50 56.00 L 93.50 56.00 Q 91.00 56.00 88.53 55.65 L 37.47 48.35 Q 35.00 48.00 35.00 50.50 Z" />

  <!-- Bright hotspot at the intersection -->
  <circle cx="100" cy="66" r="58" fill="url(#hotspot)" />

  <!-- Wordmark arced above the cross -->
  <g>
    <path d="M0.88 0L0.88-0.02Q0.92-0.15 0.95-0.35Q0.99-0.54 1.01-0.82Q1.04-1.11 1.05-1.50Q1.06-1.89 1.06-2.42L1.06-6.44Q1.06-6.96 1.05-7.35Q1.04-7.75 1.01-8.03Q0.99-8.32 0.95-8.51Q0.92-8.70 0.88-8.83L0.88-8.86L2.37-8.86L2.37-8.83Q2.33-8.70 2.29-8.51Q2.26-8.32 2.24-8.03Q2.22-7.75 2.20-7.35Q2.19-6.96 2.19-6.44L2.19-5.06L5.79-8.01Q6.40-8.50 6.40-8.86L8.13-8.86L8.13-8.83Q7.77-8.75 7.40-8.50Q7.02-8.26 6.60-7.91L3.42-5.24L7.25-1.03Q7.49-0.78 7.66-0.61Q7.83-0.45 7.96-0.34Q8.09-0.23 8.20-0.16Q8.31-0.09 8.43-0.02L8.43 0L6.62 0Q6.59-0.06 6.53-0.14Q6.47-0.23 6.40-0.32Q6.32-0.41 6.23-0.51Q6.14-0.61 6.06-0.70L2.19-4.95L2.19-2.42Q2.19-1.89 2.20-1.50Q2.22-1.11 2.24-0.82Q2.26-0.54 2.29-0.35Q2.33-0.15 2.37-0.02L2.37 0" fill="#000000" transform="translate(31.27 49.21) rotate(-73.558) translate(-4.09 0)" />
      <path d="M0.83-8.86L1.23-8.86L7.59-2.09L7.59-6.44Q7.59-6.96 7.58-7.35Q7.57-7.75 7.54-8.03Q7.52-8.32 7.48-8.51Q7.45-8.70 7.41-8.83L7.41-8.86L8.51-8.86L8.51-8.83Q8.47-8.70 8.44-8.51Q8.41-8.32 8.39-8.03Q8.36-7.75 8.35-7.35Q8.34-6.96 8.34-6.44L8.34 0.12L8.12 0.12L1.76-6.64L1.76-2.42Q1.76-1.89 1.77-1.50Q1.79-1.11 1.81-0.82Q1.83-0.54 1.87-0.35Q1.90-0.15 1.93-0.02L1.93 0L0.83 0L0.83-0.02Q0.87-0.15 0.90-0.35Q0.94-0.54 0.96-0.82Q0.99-1.11 1-1.50Q1.01-1.89 1.01-2.42L1.01-6.44Q1.01-6.96 1-7.35Q0.99-7.75 0.96-8.03Q0.94-8.32 0.90-8.51Q0.87-8.70 0.83-8.83" fill="#000000" transform="translate(34.26 40.98) rotate(-66.555) translate(-4.67 0)" />
      <path d="M0.94 0L0.94-0.02Q0.98-0.15 1.01-0.35Q1.04-0.54 1.06-0.82Q1.09-1.11 1.10-1.50Q1.11-1.89 1.11-2.42L1.11-6.44Q1.11-6.96 1.10-7.35Q1.09-7.75 1.06-8.03Q1.04-8.32 1.01-8.51Q0.98-8.70 0.94-8.83L0.94-8.86L2.42-8.86L2.42-8.83Q2.38-8.70 2.34-8.51Q2.31-8.32 2.29-8.03Q2.27-7.75 2.25-7.35Q2.24-6.96 2.24-6.44L2.24-2.42Q2.24-1.89 2.25-1.50Q2.27-1.11 2.29-0.82Q2.31-0.54 2.34-0.35Q2.38-0.15 2.42-0.02L2.42 0" fill="#000000" transform="translate(37.04 35.27) rotate(-61.479) translate(-1.68 0)" />
      <path d="M8.68-1.29L8.68-1.04Q8.68-0.97 8.66-0.90Q8.65-0.82 8.59-0.77Q8.31-0.56 7.99-0.39Q7.67-0.21 7.29-0.08Q6.91 0.05 6.48 0.12Q6.04 0.19 5.54 0.19Q4.42 0.19 3.49-0.14Q2.56-0.47 1.90-1.07Q1.24-1.68 0.87-2.53Q0.51-3.38 0.51-4.42Q0.51-5 0.66-5.57Q0.81-6.14 1.10-6.65Q1.39-7.17 1.82-7.59Q2.24-8.02 2.79-8.34Q3.34-8.65 3.99-8.83Q4.65-9.01 5.42-9.01Q5.71-9.01 6.02-8.98Q6.33-8.95 6.63-8.90Q6.94-8.85 7.22-8.77Q7.50-8.70 7.75-8.60L8.17-7.46L8.12-7.44Q7.88-7.65 7.57-7.84Q7.25-8.02 6.89-8.16Q6.54-8.30 6.14-8.37Q5.75-8.45 5.35-8.45Q4.57-8.45 3.92-8.21Q3.27-7.96 2.81-7.50Q2.34-7.04 2.08-6.36Q1.82-5.69 1.82-4.83Q1.82-3.89 2.07-3.08Q2.32-2.27 2.80-1.67Q3.29-1.08 4.02-0.74Q4.76-0.41 5.73-0.41Q6.16-0.41 6.50-0.48Q6.84-0.54 7.08-0.65Q7.31-0.75 7.43-0.87Q7.55-0.99 7.55-1.09L7.55-1.33Q7.55-1.76 7.54-2.08Q7.53-2.39 7.50-2.62Q7.48-2.85 7.45-3.02Q7.42-3.19 7.38-3.33L7.38-3.35L8.86-3.35L8.86-3.33Q8.82-3.20 8.79-3.02Q8.75-2.85 8.73-2.61Q8.70-2.37 8.69-2.04Q8.68-1.72 8.68-1.29" fill="#000000" transform="translate(40.32 29.82) rotate(-56.384) translate(-4.69 0)" />
      <path d="M7.01-2.42L7.01-4.24Q6.76-4.24 6.39-4.25Q6.02-4.25 5.59-4.26Q5.15-4.26 4.68-4.27Q4.21-4.27 3.76-4.27Q3.30-4.27 2.90-4.27Q2.49-4.26 2.19-4.25L2.19-2.42Q2.19-1.89 2.20-1.50Q2.22-1.11 2.24-0.82Q2.26-0.54 2.29-0.35Q2.33-0.15 2.37-0.02L2.37 0L0.88 0L0.88-0.02Q0.92-0.15 0.95-0.35Q0.99-0.54 1.01-0.82Q1.04-1.11 1.05-1.50Q1.06-1.89 1.06-2.42L1.06-6.44Q1.06-6.96 1.05-7.35Q1.04-7.75 1.01-8.03Q0.99-8.32 0.95-8.51Q0.92-8.70 0.88-8.83L0.88-8.86L2.37-8.86L2.37-8.83Q2.33-8.70 2.29-8.51Q2.26-8.32 2.24-8.03Q2.22-7.75 2.20-7.35Q2.19-6.96 2.19-6.44L2.19-4.85Q2.51-4.84 2.92-4.84Q3.32-4.84 3.77-4.84Q4.21-4.84 4.67-4.85Q5.13-4.85 5.56-4.86Q5.99-4.87 6.37-4.89Q6.74-4.90 7.01-4.91L7.01-6.44Q7.01-6.96 7-7.35Q6.98-7.75 6.96-8.03Q6.94-8.32 6.90-8.51Q6.87-8.70 6.83-8.83L6.83-8.86L8.31-8.86L8.31-8.83Q8.28-8.70 8.24-8.51Q8.21-8.32 8.18-8.03Q8.16-7.75 8.15-7.35Q8.13-6.96 8.13-6.44L8.13-2.42Q8.13-1.89 8.15-1.50Q8.16-1.11 8.18-0.82Q8.21-0.54 8.24-0.35Q8.28-0.15 8.31-0.02L8.31 0L6.83 0L6.83-0.02Q6.87-0.15 6.90-0.35Q6.94-0.54 6.96-0.82Q6.98-1.11 7-1.50Q7.01-1.89 7.01-2.42" fill="#000000" transform="translate(45.96 22.43) rotate(-48.954) translate(-4.60 0)" />
      <path d="M3.21-2.42L3.21-8.31Q2.48-8.31 1.90-8.25Q1.31-8.18 0.88-8.11Q0.39-8.02 0-7.91L0.18-8.91Q0.25-8.90 0.40-8.89Q0.55-8.89 0.73-8.88Q0.91-8.88 1.11-8.87Q1.32-8.87 1.49-8.87Q1.67-8.86 1.81-8.86Q1.95-8.86 2.01-8.86L5.54-8.86Q5.60-8.86 5.74-8.86Q5.88-8.86 6.06-8.87Q6.24-8.87 6.44-8.87Q6.64-8.88 6.82-8.88Q7-8.89 7.15-8.89Q7.30-8.90 7.38-8.91L7.55-7.91Q7.16-8.02 6.66-8.11Q6.24-8.18 5.65-8.25Q5.06-8.31 4.34-8.31L4.34-2.42Q4.34-1.89 4.35-1.50Q4.37-1.11 4.39-0.82Q4.41-0.54 4.44-0.35Q4.48-0.15 4.52-0.02L4.52 0L3.04 0L3.04-0.02Q3.08-0.15 3.11-0.35Q3.14-0.54 3.16-0.82Q3.19-1.11 3.20-1.50Q3.21-1.89 3.21-2.42" fill="#000000" transform="translate(51.81 16.45) rotate(-42.257) translate(-3.78 0)" />
      <path d="M4.62-8.60L4.58-7.45L4.44-7.45Q4.39-7.59 4.28-7.77Q4.18-7.95 4-8.11Q3.82-8.26 3.57-8.37Q3.32-8.47 2.98-8.47Q2.68-8.47 2.45-8.38Q2.21-8.29 2.05-8.12Q1.90-7.96 1.82-7.73Q1.74-7.50 1.74-7.22Q1.74-6.78 1.99-6.37Q2.24-5.97 2.61-5.57Q2.99-5.18 3.43-4.78Q3.87-4.39 4.24-3.96Q4.62-3.53 4.87-3.07Q5.12-2.60 5.12-2.06Q5.12-1.66 4.98-1.26Q4.84-0.85 4.55-0.53Q4.26-0.21 3.80-0.01Q3.35 0.19 2.72 0.19Q2.37 0.19 2.05 0.13Q1.73 0.06 1.46-0.03Q1.19-0.13 0.98-0.24Q0.77-0.35 0.63-0.44L0.77-1.81L0.93-1.81Q0.99-1.52 1.15-1.26Q1.30-0.99 1.53-0.79Q1.75-0.59 2.04-0.47Q2.33-0.35 2.68-0.35Q3-0.35 3.25-0.45Q3.50-0.54 3.68-0.71Q3.85-0.88 3.95-1.12Q4.05-1.35 4.05-1.63Q4.05-2.02 3.90-2.35Q3.76-2.68 3.53-2.98Q3.30-3.27 3-3.55Q2.71-3.83 2.40-4.11Q2.09-4.39 1.80-4.69Q1.51-4.98 1.28-5.32Q1.04-5.66 0.90-6.04Q0.76-6.43 0.76-6.89Q0.76-7.38 0.95-7.77Q1.14-8.17 1.45-8.44Q1.76-8.72 2.16-8.87Q2.55-9.02 2.97-9.02Q3.28-9.02 3.54-8.97Q3.80-8.92 4.01-8.85Q4.21-8.78 4.37-8.72Q4.52-8.65 4.62-8.60" fill="#000000" transform="translate(56.94 12.21) rotate(-36.936) translate(-2.88 0)" />
      
      <path d="M4.92-9.01Q5.95-9.01 6.83-8.67Q7.70-8.33 8.34-7.72Q8.97-7.12 9.33-6.26Q9.69-5.41 9.69-4.38Q9.69-3.79 9.56-3.22Q9.42-2.66 9.16-2.15Q8.89-1.64 8.51-1.21Q8.13-0.78 7.64-0.47Q7.15-0.16 6.55 0.02Q5.96 0.19 5.27 0.19Q4.24 0.19 3.37-0.14Q2.50-0.47 1.86-1.07Q1.22-1.68 0.86-2.53Q0.51-3.38 0.51-4.42Q0.51-5 0.64-5.57Q0.78-6.14 1.04-6.65Q1.30-7.17 1.68-7.59Q2.06-8.02 2.55-8.34Q3.05-8.65 3.64-8.83Q4.24-9.01 4.92-9.01M5.27-0.36Q5.96-0.36 6.53-0.61Q7.10-0.86 7.51-1.33Q7.92-1.80 8.15-2.47Q8.38-3.15 8.38-4.01Q8.38-4.96 8.16-5.77Q7.94-6.58 7.50-7.18Q7.07-7.78 6.43-8.11Q5.78-8.45 4.92-8.45Q4.24-8.45 3.67-8.21Q3.10-7.96 2.69-7.50Q2.28-7.04 2.05-6.36Q1.82-5.69 1.82-4.83Q1.82-3.89 2.04-3.07Q2.25-2.25 2.69-1.65Q3.12-1.05 3.77-0.71Q4.42-0.36 5.27-0.36" fill="#000000" transform="translate(66.88 5.94) rotate(-27.525) translate(-5.10 0)" />
      <path d="M2.19-4.67L2.19-2.42Q2.19-1.89 2.20-1.50Q2.22-1.11 2.24-0.82Q2.26-0.54 2.29-0.35Q2.33-0.15 2.37-0.02L2.37 0L0.88 0L0.88-0.02Q0.92-0.15 0.95-0.35Q0.99-0.54 1.01-0.82Q1.04-1.11 1.05-1.50Q1.06-1.89 1.06-2.42L1.06-6.44Q1.06-6.96 1.05-7.35Q1.04-7.75 1.01-8.03Q0.99-8.32 0.95-8.51Q0.92-8.70 0.88-8.83L0.88-8.86Q1.40-8.86 1.92-8.86Q2.45-8.86 2.94-8.87Q3.43-8.87 3.88-8.88Q4.32-8.89 4.68-8.90Q5.04-8.91 5.29-8.92Q5.53-8.94 5.64-8.96L5.34-8.13Q5.13-8.19 4.86-8.23Q4.63-8.27 4.29-8.30Q3.95-8.34 3.51-8.34Q3.37-8.34 3.14-8.33Q2.92-8.32 2.71-8.31Q2.46-8.30 2.19-8.28L2.19-5.16Q2.82-5.17 3.35-5.20Q3.89-5.23 4.27-5.26Q4.71-5.30 5.07-5.35L4.89-4.45Q4.42-4.51 3.95-4.56Q3.54-4.60 3.07-4.64Q2.60-4.67 2.19-4.67" fill="#000000" transform="translate(74.21 2.63) rotate(-21.093) translate(-2.95 0)" />
      
      <path d="M3.21-2.42L3.21-8.31Q2.48-8.31 1.90-8.25Q1.31-8.18 0.88-8.11Q0.39-8.02 0-7.91L0.18-8.91Q0.25-8.90 0.40-8.89Q0.55-8.89 0.73-8.88Q0.91-8.88 1.11-8.87Q1.32-8.87 1.49-8.87Q1.67-8.86 1.81-8.86Q1.95-8.86 2.01-8.86L5.54-8.86Q5.60-8.86 5.74-8.86Q5.88-8.86 6.06-8.87Q6.24-8.87 6.44-8.87Q6.64-8.88 6.82-8.88Q7-8.89 7.15-8.89Q7.30-8.90 7.38-8.91L7.55-7.91Q7.16-8.02 6.66-8.11Q6.24-8.18 5.65-8.25Q5.06-8.31 4.34-8.31L4.34-2.42Q4.34-1.89 4.35-1.50Q4.37-1.11 4.39-0.82Q4.41-0.54 4.44-0.35Q4.48-0.15 4.52-0.02L4.52 0L3.04 0L3.04-0.02Q3.08-0.15 3.11-0.35Q3.14-0.54 3.16-0.82Q3.19-1.11 3.20-1.50Q3.21-1.89 3.21-2.42" fill="#000000" transform="translate(84.26 -0.42) rotate(-12.685) translate(-3.78 0)" />
      <path d="M7.01-2.42L7.01-4.24Q6.76-4.24 6.39-4.25Q6.02-4.25 5.59-4.26Q5.15-4.26 4.68-4.27Q4.21-4.27 3.76-4.27Q3.30-4.27 2.90-4.27Q2.49-4.26 2.19-4.25L2.19-2.42Q2.19-1.89 2.20-1.50Q2.22-1.11 2.24-0.82Q2.26-0.54 2.29-0.35Q2.33-0.15 2.37-0.02L2.37 0L0.88 0L0.88-0.02Q0.92-0.15 0.95-0.35Q0.99-0.54 1.01-0.82Q1.04-1.11 1.05-1.50Q1.06-1.89 1.06-2.42L1.06-6.44Q1.06-6.96 1.05-7.35Q1.04-7.75 1.01-8.03Q0.99-8.32 0.95-8.51Q0.92-8.70 0.88-8.83L0.88-8.86L2.37-8.86L2.37-8.83Q2.33-8.70 2.29-8.51Q2.26-8.32 2.24-8.03Q2.22-7.75 2.20-7.35Q2.19-6.96 2.19-6.44L2.19-4.85Q2.51-4.84 2.92-4.84Q3.32-4.84 3.77-4.84Q4.21-4.84 4.67-4.85Q5.13-4.85 5.56-4.86Q5.99-4.87 6.37-4.89Q6.74-4.90 7.01-4.91L7.01-6.44Q7.01-6.96 7-7.35Q6.98-7.75 6.96-8.03Q6.94-8.32 6.90-8.51Q6.87-8.70 6.83-8.83L6.83-8.86L8.31-8.86L8.31-8.83Q8.28-8.70 8.24-8.51Q8.21-8.32 8.18-8.03Q8.16-7.75 8.15-7.35Q8.13-6.96 8.13-6.44L8.13-2.42Q8.13-1.89 8.15-1.50Q8.16-1.11 8.18-0.82Q8.21-0.54 8.24-0.35Q8.28-0.15 8.31-0.02L8.31 0L6.83 0L6.83-0.02Q6.87-0.15 6.90-0.35Q6.94-0.54 6.96-0.82Q6.98-1.11 7-1.50Q7.01-1.89 7.01-2.42" fill="#000000" transform="translate(92.52 -1.78) rotate(-5.988) translate(-4.60 0)" />
      <path d="M0.88-8.86Q1.66-8.86 2.42-8.86Q3.18-8.87 3.82-8.88Q4.45-8.89 4.90-8.91Q5.36-8.93 5.52-8.96L5.21-8.13Q5.01-8.19 4.74-8.23Q4.50-8.27 4.17-8.30Q3.83-8.34 3.39-8.34Q3.24-8.34 3.04-8.33Q2.83-8.32 2.64-8.31Q2.42-8.30 2.19-8.28L2.19-4.91Q2.82-4.92 3.34-4.95Q3.85-4.98 4.21-5.01Q4.63-5.05 4.95-5.10L4.76-4.20Q4.33-4.26 3.89-4.31Q3.50-4.35 3.05-4.38Q2.60-4.42 2.19-4.42L2.19-0.54Q2.92-0.54 3.53-0.61Q4.14-0.67 4.60-0.75Q5.13-0.83 5.57-0.95L5.39 0.05Q5.31 0.04 5.16 0.04Q5.02 0.03 4.83 0.02Q4.65 0.02 4.45 0.02Q4.25 0.01 4.07 0.01Q3.89 0.01 3.75 0Q3.61 0 3.55 0L0.88 0L0.88-0.02Q0.92-0.15 0.95-0.35Q0.99-0.54 1.01-0.82Q1.04-1.11 1.05-1.50Q1.06-1.89 1.06-2.42L1.06-6.44Q1.06-6.96 1.05-7.35Q1.04-7.75 1.01-8.03Q0.99-8.32 0.95-8.51Q0.92-8.70 0.88-8.83" fill="#000000" transform="translate(100.21 -2.17) rotate(0.168) translate(-3.10 0)" />
      
      <path d="M7.01-2.42L7.01-4.24Q6.76-4.24 6.39-4.25Q6.02-4.25 5.59-4.26Q5.15-4.26 4.68-4.27Q4.21-4.27 3.76-4.27Q3.30-4.27 2.90-4.27Q2.49-4.26 2.19-4.25L2.19-2.42Q2.19-1.89 2.20-1.50Q2.22-1.11 2.24-0.82Q2.26-0.54 2.29-0.35Q2.33-0.15 2.37-0.02L2.37 0L0.88 0L0.88-0.02Q0.92-0.15 0.95-0.35Q0.99-0.54 1.01-0.82Q1.04-1.11 1.05-1.50Q1.06-1.89 1.06-2.42L1.06-6.44Q1.06-6.96 1.05-7.35Q1.04-7.75 1.01-8.03Q0.99-8.32 0.95-8.51Q0.92-8.70 0.88-8.83L0.88-8.86L2.37-8.86L2.37-8.83Q2.33-8.70 2.29-8.51Q2.26-8.32 2.24-8.03Q2.22-7.75 2.20-7.35Q2.19-6.96 2.19-6.44L2.19-4.85Q2.51-4.84 2.92-4.84Q3.32-4.84 3.77-4.84Q4.21-4.84 4.67-4.85Q5.13-4.85 5.56-4.86Q5.99-4.87 6.37-4.89Q6.74-4.90 7.01-4.91L7.01-6.44Q7.01-6.96 7-7.35Q6.98-7.75 6.96-8.03Q6.94-8.32 6.90-8.51Q6.87-8.70 6.83-8.83L6.83-8.86L8.31-8.86L8.31-8.83Q8.28-8.70 8.24-8.51Q8.21-8.32 8.18-8.03Q8.16-7.75 8.15-7.35Q8.13-6.96 8.13-6.44L8.13-2.42Q8.13-1.89 8.15-1.50Q8.16-1.11 8.18-0.82Q8.21-0.54 8.24-0.35Q8.28-0.15 8.31-0.02L8.31 0L6.83 0L6.83-0.02Q6.87-0.15 6.90-0.35Q6.94-0.54 6.96-0.82Q6.98-1.11 7-1.50Q7.01-1.89 7.01-2.42" fill="#000000" transform="translate(111.65 -1.22) rotate(9.356) translate(-4.60 0)" />
      <path d="M0.94 0L0.94-0.02Q0.98-0.15 1.01-0.35Q1.04-0.54 1.06-0.82Q1.09-1.11 1.10-1.50Q1.11-1.89 1.11-2.42L1.11-6.44Q1.11-6.96 1.10-7.35Q1.09-7.75 1.06-8.03Q1.04-8.32 1.01-8.51Q0.98-8.70 0.94-8.83L0.94-8.86L2.42-8.86L2.42-8.83Q2.38-8.70 2.34-8.51Q2.31-8.32 2.29-8.03Q2.27-7.75 2.25-7.35Q2.24-6.96 2.24-6.44L2.24-2.42Q2.24-1.89 2.25-1.50Q2.27-1.11 2.29-0.82Q2.31-0.54 2.34-0.35Q2.38-0.15 2.42-0.02L2.42 0" fill="#000000" transform="translate(117.79 0.07) rotate(14.374) translate(-1.68 0)" />
      <path d="M8.68-1.29L8.68-1.04Q8.68-0.97 8.66-0.90Q8.65-0.82 8.59-0.77Q8.31-0.56 7.99-0.39Q7.67-0.21 7.29-0.08Q6.91 0.05 6.48 0.12Q6.04 0.19 5.54 0.19Q4.42 0.19 3.49-0.14Q2.56-0.47 1.90-1.07Q1.24-1.68 0.87-2.53Q0.51-3.38 0.51-4.42Q0.51-5 0.66-5.57Q0.81-6.14 1.10-6.65Q1.39-7.17 1.82-7.59Q2.24-8.02 2.79-8.34Q3.34-8.65 3.99-8.83Q4.65-9.01 5.42-9.01Q5.71-9.01 6.02-8.98Q6.33-8.95 6.63-8.90Q6.94-8.85 7.22-8.77Q7.50-8.70 7.75-8.60L8.17-7.46L8.12-7.44Q7.88-7.65 7.57-7.84Q7.25-8.02 6.89-8.16Q6.54-8.30 6.14-8.37Q5.75-8.45 5.35-8.45Q4.57-8.45 3.92-8.21Q3.27-7.96 2.81-7.50Q2.34-7.04 2.08-6.36Q1.82-5.69 1.82-4.83Q1.82-3.89 2.07-3.08Q2.32-2.27 2.80-1.67Q3.29-1.08 4.02-0.74Q4.76-0.41 5.73-0.41Q6.16-0.41 6.50-0.48Q6.84-0.54 7.08-0.65Q7.31-0.75 7.43-0.87Q7.55-0.99 7.55-1.09L7.55-1.33Q7.55-1.76 7.54-2.08Q7.53-2.39 7.50-2.62Q7.48-2.85 7.45-3.02Q7.42-3.19 7.38-3.33L7.38-3.35L8.86-3.35L8.86-3.33Q8.82-3.20 8.79-3.02Q8.75-2.85 8.73-2.61Q8.70-2.37 8.69-2.04Q8.68-1.72 8.68-1.29" fill="#000000" transform="translate(123.88 1.93) rotate(19.468) translate(-4.69 0)" />
      <path d="M7.01-2.42L7.01-4.24Q6.76-4.24 6.39-4.25Q6.02-4.25 5.59-4.26Q5.15-4.26 4.68-4.27Q4.21-4.27 3.76-4.27Q3.30-4.27 2.90-4.27Q2.49-4.26 2.19-4.25L2.19-2.42Q2.19-1.89 2.20-1.50Q2.22-1.11 2.24-0.82Q2.26-0.54 2.29-0.35Q2.33-0.15 2.37-0.02L2.37 0L0.88 0L0.88-0.02Q0.92-0.15 0.95-0.35Q0.99-0.54 1.01-0.82Q1.04-1.11 1.05-1.50Q1.06-1.89 1.06-2.42L1.06-6.44Q1.06-6.96 1.05-7.35Q1.04-7.75 1.01-8.03Q0.99-8.32 0.95-8.51Q0.92-8.70 0.88-8.83L0.88-8.86L2.37-8.86L2.37-8.83Q2.33-8.70 2.29-8.51Q2.26-8.32 2.24-8.03Q2.22-7.75 2.20-7.35Q2.19-6.96 2.19-6.44L2.19-4.85Q2.51-4.84 2.92-4.84Q3.32-4.84 3.77-4.84Q4.21-4.84 4.67-4.85Q5.13-4.85 5.56-4.86Q5.99-4.87 6.37-4.89Q6.74-4.90 7.01-4.91L7.01-6.44Q7.01-6.96 7-7.35Q6.98-7.75 6.96-8.03Q6.94-8.32 6.90-8.51Q6.87-8.70 6.83-8.83L6.83-8.86L8.31-8.86L8.31-8.83Q8.28-8.70 8.24-8.51Q8.21-8.32 8.18-8.03Q8.16-7.75 8.15-7.35Q8.13-6.96 8.13-6.44L8.13-2.42Q8.13-1.89 8.15-1.50Q8.16-1.11 8.18-0.82Q8.21-0.54 8.24-0.35Q8.28-0.15 8.31-0.02L8.31 0L6.83 0L6.83-0.02Q6.87-0.15 6.90-0.35Q6.94-0.54 6.96-0.82Q6.98-1.11 7-1.50Q7.01-1.89 7.01-2.42" fill="#000000" transform="translate(132.42 5.58) rotate(26.898) translate(-4.60 0)" />
      <path d="M0.88-8.86Q1.66-8.86 2.42-8.86Q3.18-8.87 3.82-8.88Q4.45-8.89 4.90-8.91Q5.36-8.93 5.52-8.96L5.21-8.13Q5.01-8.19 4.74-8.23Q4.50-8.27 4.17-8.30Q3.83-8.34 3.39-8.34Q3.24-8.34 3.04-8.33Q2.83-8.32 2.64-8.31Q2.42-8.30 2.19-8.28L2.19-4.91Q2.82-4.92 3.34-4.95Q3.85-4.98 4.21-5.01Q4.63-5.05 4.95-5.10L4.76-4.20Q4.33-4.26 3.89-4.31Q3.50-4.35 3.05-4.38Q2.60-4.42 2.19-4.42L2.19-0.54Q2.92-0.54 3.53-0.61Q4.14-0.67 4.60-0.75Q5.13-0.83 5.57-0.95L5.39 0.05Q5.31 0.04 5.16 0.04Q5.02 0.03 4.83 0.02Q4.65 0.02 4.45 0.02Q4.25 0.01 4.07 0.01Q3.89 0.01 3.75 0Q3.61 0 3.55 0L0.88 0L0.88-0.02Q0.92-0.15 0.95-0.35Q0.99-0.54 1.01-0.82Q1.04-1.11 1.05-1.50Q1.06-1.89 1.06-2.42L1.06-6.44Q1.06-6.96 1.05-7.35Q1.04-7.75 1.01-8.03Q0.99-8.32 0.95-8.51Q0.92-8.70 0.88-8.83" fill="#000000" transform="translate(139.09 9.43) rotate(33.054) translate(-3.10 0)" />
      <path d="M2.19-3.80L2.19-2.42Q2.19-1.89 2.20-1.50Q2.22-1.11 2.24-0.82Q2.26-0.54 2.29-0.35Q2.33-0.15 2.37-0.02L2.37 0L0.88 0L0.88-0.02Q0.92-0.15 0.95-0.35Q0.99-0.54 1.01-0.82Q1.03-1.11 1.05-1.49Q1.06-1.88 1.06-2.42L1.06-6.44Q1.06-6.96 1.05-7.35Q1.03-7.75 1.01-8.03Q0.99-8.31 0.95-8.51Q0.92-8.70 0.88-8.83L0.88-8.86L1.14-8.83Q1.26-8.82 1.41-8.82Q1.55-8.81 1.70-8.81Q1.95-8.81 2.36-8.87Q2.77-8.93 3.40-8.93Q4-8.93 4.50-8.77Q5-8.61 5.37-8.30Q5.74-7.99 5.95-7.54Q6.16-7.10 6.16-6.53Q6.16-6.08 6.04-5.70Q5.93-5.32 5.72-5.02Q5.52-4.71 5.23-4.47Q4.94-4.23 4.58-4.07L6.75-1.03Q6.91-0.80 7.04-0.63Q7.18-0.46 7.31-0.34Q7.44-0.22 7.55-0.15Q7.67-0.07 7.80-0.02L7.80 0L6.01 0Q5.99-0.12 5.89-0.31Q5.79-0.51 5.65-0.70L3.47-3.78Q3.32-3.77 3.18-3.76Q3.04-3.75 2.89-3.75Q2.72-3.75 2.54-3.76Q2.37-3.77 2.19-3.80M2.19-8.38L2.19-4.29Q2.35-4.25 2.53-4.23Q2.70-4.22 2.86-4.22Q3.32-4.22 3.71-4.36Q4.09-4.50 4.36-4.78Q4.63-5.06 4.77-5.49Q4.92-5.91 4.92-6.48Q4.92-6.94 4.82-7.32Q4.71-7.70 4.51-7.96Q4.30-8.22 3.98-8.37Q3.67-8.51 3.25-8.51Q2.82-8.51 2.57-8.47Q2.32-8.43 2.19-8.38" fill="#000000" transform="translate(144.63 13.42) rotate(38.521) translate(-3.74 0)" />
      
      <path d="M4.92-9.01Q5.95-9.01 6.83-8.67Q7.70-8.33 8.34-7.72Q8.97-7.12 9.33-6.26Q9.69-5.41 9.69-4.38Q9.69-3.79 9.56-3.22Q9.42-2.66 9.16-2.15Q8.89-1.64 8.51-1.21Q8.13-0.78 7.64-0.47Q7.15-0.16 6.55 0.02Q5.96 0.19 5.27 0.19Q4.24 0.19 3.37-0.14Q2.50-0.47 1.86-1.07Q1.22-1.68 0.86-2.53Q0.51-3.38 0.51-4.42Q0.51-5 0.64-5.57Q0.78-6.14 1.04-6.65Q1.30-7.17 1.68-7.59Q2.06-8.02 2.55-8.34Q3.05-8.65 3.64-8.83Q4.24-9.01 4.92-9.01M5.27-0.36Q5.96-0.36 6.53-0.61Q7.10-0.86 7.51-1.33Q7.92-1.80 8.15-2.47Q8.38-3.15 8.38-4.01Q8.38-4.96 8.16-5.77Q7.94-6.58 7.50-7.18Q7.07-7.78 6.43-8.11Q5.78-8.45 4.92-8.45Q4.24-8.45 3.67-8.21Q3.10-7.96 2.69-7.50Q2.28-7.04 2.05-6.36Q1.82-5.69 1.82-4.83Q1.82-3.89 2.04-3.07Q2.25-2.25 2.69-1.65Q3.12-1.05 3.77-0.71Q4.42-0.36 5.27-0.36" fill="#000000" transform="translate(153.77 22.12) rotate(48.618) translate(-5.10 0)" />
      <path d="M2.19-3.80L2.19-2.42Q2.19-1.89 2.20-1.50Q2.22-1.11 2.24-0.82Q2.26-0.54 2.29-0.35Q2.33-0.15 2.37-0.02L2.37 0L0.88 0L0.88-0.02Q0.92-0.15 0.95-0.35Q0.99-0.54 1.01-0.82Q1.03-1.11 1.05-1.49Q1.06-1.88 1.06-2.42L1.06-6.44Q1.06-6.96 1.05-7.35Q1.03-7.75 1.01-8.03Q0.99-8.31 0.95-8.51Q0.92-8.70 0.88-8.83L0.88-8.86L1.14-8.83Q1.26-8.82 1.41-8.82Q1.55-8.81 1.70-8.81Q1.95-8.81 2.36-8.87Q2.77-8.93 3.40-8.93Q4-8.93 4.50-8.77Q5-8.61 5.37-8.30Q5.74-7.99 5.95-7.54Q6.16-7.10 6.16-6.53Q6.16-6.08 6.04-5.70Q5.93-5.32 5.72-5.02Q5.52-4.71 5.23-4.47Q4.94-4.23 4.58-4.07L6.75-1.03Q6.91-0.80 7.04-0.63Q7.18-0.46 7.31-0.34Q7.44-0.22 7.55-0.15Q7.67-0.07 7.80-0.02L7.80 0L6.01 0Q5.99-0.12 5.89-0.31Q5.79-0.51 5.65-0.70L3.47-3.78Q3.32-3.77 3.18-3.76Q3.04-3.75 2.89-3.75Q2.72-3.75 2.54-3.76Q2.37-3.77 2.19-3.80M2.19-8.38L2.19-4.29Q2.35-4.25 2.53-4.23Q2.70-4.22 2.86-4.22Q3.32-4.22 3.71-4.36Q4.09-4.50 4.36-4.78Q4.63-5.06 4.77-5.49Q4.92-5.91 4.92-6.48Q4.92-6.94 4.82-7.32Q4.71-7.70 4.51-7.96Q4.30-8.22 3.98-8.37Q3.67-8.51 3.25-8.51Q2.82-8.51 2.57-8.47Q2.32-8.43 2.19-8.38" fill="#000000" transform="translate(159.19 29.09) rotate(55.683) translate(-3.74 0)" />
      <path d="M2.24-8.33Q2.22-7.63 2.21-6.99Q2.21-6.71 2.20-6.42Q2.20-6.13 2.20-5.85Q2.19-5.57 2.19-5.31Q2.19-5.05 2.19-4.85Q2.19-4.44 2.19-3.85Q2.20-3.27 2.21-2.65Q2.22-2.03 2.24-1.46Q2.25-0.90 2.28-0.52Q2.37-0.51 2.51-0.49Q2.66-0.48 2.82-0.47Q2.98-0.46 3.13-0.45Q3.29-0.44 3.39-0.44Q3.82-0.44 4.28-0.50Q4.73-0.56 5.15-0.72Q5.58-0.88 5.95-1.16Q6.33-1.45 6.61-1.89Q6.89-2.33 7.05-2.96Q7.21-3.59 7.21-4.44Q7.21-5.39 6.98-6.12Q6.75-6.86 6.31-7.37Q5.87-7.88 5.22-8.14Q4.56-8.40 3.72-8.40Q3.55-8.40 3.34-8.39Q3.13-8.38 2.92-8.37Q2.72-8.36 2.54-8.35Q2.35-8.33 2.24-8.33M0.88-8.86L0.88-8.88Q1.03-8.88 1.15-8.87Q1.25-8.86 1.37-8.86Q1.48-8.86 1.54-8.86Q1.66-8.86 1.94-8.87Q2.21-8.88 2.56-8.89Q2.92-8.91 3.30-8.92Q3.68-8.93 4.01-8.93Q4.90-8.93 5.71-8.71Q6.52-8.49 7.13-7.98Q7.75-7.47 8.10-6.65Q8.46-5.83 8.46-4.63Q8.46-3.77 8.27-3.09Q8.09-2.40 7.75-1.88Q7.41-1.35 6.93-0.98Q6.46-0.61 5.89-0.36Q5.32-0.12 4.67-0.01Q4.02 0.10 3.33 0.10Q3.08 0.10 2.73 0.08Q2.38 0.07 2.03 0.05Q1.68 0.03 1.37 0.02Q1.06 0 0.88 0L0.88-0.02Q0.92-0.15 0.95-0.35Q0.99-0.54 1.01-0.82Q1.04-1.11 1.05-1.50Q1.06-1.89 1.06-2.42L1.06-6.44Q1.06-6.96 1.05-7.36Q1.04-7.76 1.01-8.05Q0.99-8.33 0.95-8.53Q0.92-8.73 0.88-8.86" fill="#000000" transform="translate(163.44 36.16) rotate(62.281) translate(-4.52 0)" />
      <path d="M0.88-8.86Q1.66-8.86 2.42-8.86Q3.18-8.87 3.82-8.88Q4.45-8.89 4.90-8.91Q5.36-8.93 5.52-8.96L5.21-8.13Q5.01-8.19 4.74-8.23Q4.50-8.27 4.17-8.30Q3.83-8.34 3.39-8.34Q3.24-8.34 3.04-8.33Q2.83-8.32 2.64-8.31Q2.42-8.30 2.19-8.28L2.19-4.91Q2.82-4.92 3.34-4.95Q3.85-4.98 4.21-5.01Q4.63-5.05 4.95-5.10L4.76-4.20Q4.33-4.26 3.89-4.31Q3.50-4.35 3.05-4.38Q2.60-4.42 2.19-4.42L2.19-0.54Q2.92-0.54 3.53-0.61Q4.14-0.67 4.60-0.75Q5.13-0.83 5.57-0.95L5.39 0.05Q5.31 0.04 5.16 0.04Q5.02 0.03 4.83 0.02Q4.65 0.02 4.45 0.02Q4.25 0.01 4.07 0.01Q3.89 0.01 3.75 0Q3.61 0 3.55 0L0.88 0L0.88-0.02Q0.92-0.15 0.95-0.35Q0.99-0.54 1.01-0.82Q1.04-1.11 1.05-1.50Q1.06-1.89 1.06-2.42L1.06-6.44Q1.06-6.96 1.05-7.35Q1.04-7.75 1.01-8.03Q0.99-8.32 0.95-8.51Q0.92-8.70 0.88-8.83" fill="#000000" transform="translate(166.61 43.08) rotate(68.370) translate(-3.10 0)" />
      <path d="M2.19-3.80L2.19-2.42Q2.19-1.89 2.20-1.50Q2.22-1.11 2.24-0.82Q2.26-0.54 2.29-0.35Q2.33-0.15 2.37-0.02L2.37 0L0.88 0L0.88-0.02Q0.92-0.15 0.95-0.35Q0.99-0.54 1.01-0.82Q1.03-1.11 1.05-1.49Q1.06-1.88 1.06-2.42L1.06-6.44Q1.06-6.96 1.05-7.35Q1.03-7.75 1.01-8.03Q0.99-8.31 0.95-8.51Q0.92-8.70 0.88-8.83L0.88-8.86L1.14-8.83Q1.26-8.82 1.41-8.82Q1.55-8.81 1.70-8.81Q1.95-8.81 2.36-8.87Q2.77-8.93 3.40-8.93Q4-8.93 4.50-8.77Q5-8.61 5.37-8.30Q5.74-7.99 5.95-7.54Q6.16-7.10 6.16-6.53Q6.16-6.08 6.04-5.70Q5.93-5.32 5.72-5.02Q5.52-4.71 5.23-4.47Q4.94-4.23 4.58-4.07L6.75-1.03Q6.91-0.80 7.04-0.63Q7.18-0.46 7.31-0.34Q7.44-0.22 7.55-0.15Q7.67-0.07 7.80-0.02L7.80 0L6.01 0Q5.99-0.12 5.89-0.31Q5.79-0.51 5.65-0.70L3.47-3.78Q3.32-3.77 3.18-3.76Q3.04-3.75 2.89-3.75Q2.72-3.75 2.54-3.76Q2.37-3.77 2.19-3.80M2.19-8.38L2.19-4.29Q2.35-4.25 2.53-4.23Q2.70-4.22 2.86-4.22Q3.32-4.22 3.71-4.36Q4.09-4.50 4.36-4.78Q4.63-5.06 4.77-5.49Q4.92-5.91 4.92-6.48Q4.92-6.94 4.82-7.32Q4.71-7.70 4.51-7.96Q4.30-8.22 3.98-8.37Q3.67-8.51 3.25-8.51Q2.82-8.51 2.57-8.47Q2.32-8.43 2.19-8.38" fill="#000000" transform="translate(168.83 49.54) rotate(73.837) translate(-3.74 0)" />
  </g>

  <!-- "Ministries" below the cross -->
  <g>
    <path d="M8.36-0.93L14.08-13.57L14.23-12.29L9.46-1.67Q9.46-1.67 9.32-1.35Q9.18-1.03 9.03-0.58Q8.87-0.13 8.82 0.27L8.63 0.27L8.36-0.93M1.98-1.39L2.39-1.39L2.39 0L0.29 0L0.29-0.19Q0.30-0.19 0.45-0.19Q0.59-0.19 0.59-0.19Q1.10-0.19 1.50-0.50Q1.90-0.82 1.98-1.39M2.81-1.08L2.94-1.08Q2.94-1.06 2.94-1.04Q2.94-1.03 2.94-0.99Q2.94-0.68 3.16-0.43Q3.38-0.17 3.69-0.17L3.97-0.17L3.97 0L2.81 0L2.81-1.08M1.82 0L3.40-13.57L3.59-13.57L3.97-12.45L2.85 0L1.82 0M3.23-11.44L3.59-13.57L9.06-1.73L8.63 0.27L3.23-11.44M14.08-13.57L14.25-13.57L15.88 0L14.40 0L13.36-11.51L14.08-13.57M15.31 0L15.31-1.39L15.71-1.39Q15.81-0.82 16.21-0.50Q16.61-0.19 17.10-0.19Q17.10-0.19 17.25-0.19Q17.40-0.19 17.40-0.19L17.40 0L15.31 0M14.31-1.08L14.44-1.08L14.44 0L13.28 0L13.28-0.17L13.57-0.17Q13.89-0.17 14.10-0.43Q14.31-0.68 14.31-0.99Q14.31-1.03 14.31-1.04Q14.31-1.06 14.31-1.08" fill="#000000" transform="translate(42.07 217.83) rotate(0.000) translate(-8.84 0)" />
      <path d="M2.60-13.30L3.84-13.30L3.84 0L2.60 0L2.60-13.30M2.60-1.39L2.66-1.39L2.66 0L1.14 0L1.14-0.19Q1.14-0.19 1.26-0.19Q1.39-0.19 1.39-0.19Q1.88-0.19 2.23-0.54Q2.58-0.89 2.60-1.39M2.66-13.30L2.66-11.91L2.60-11.91Q2.58-12.41 2.23-12.76Q1.88-13.11 1.39-13.11Q1.39-13.11 1.26-13.11Q1.14-13.11 1.14-13.11L1.14-13.30L2.66-13.30M3.78 0L3.78-1.39L3.84-1.39Q3.86-0.89 4.21-0.54Q4.56-0.19 5.05-0.19Q5.05-0.19 5.17-0.19Q5.28-0.19 5.30-0.19L5.30 0L3.78 0M3.84-11.91L3.78-11.91L3.78-13.30L5.30-13.30L5.30-13.11Q5.28-13.11 5.17-13.11Q5.05-13.11 5.05-13.11Q4.56-13.11 4.21-12.76Q3.86-12.41 3.84-11.91" fill="#000000" transform="translate(57.12 217.83) rotate(0.000) translate(-3.21 0)" />
      <path d="M2.57-11.49L2.39-13.58L13.43-1.80L13.60 0.27L2.57-11.49M2.38-1.35L2.43-1.35L2.43 0L0.86 0L0.86-0.19Q0.86-0.19 1.03-0.19Q1.20-0.19 1.22-0.19Q1.69-0.19 2.03-0.53Q2.38-0.87 2.38-1.35M3.19-1.35L3.25-1.35Q3.25-0.87 3.59-0.53Q3.93-0.19 4.41-0.19Q4.43-0.19 4.60-0.19Q4.77-0.19 4.77-0.19L4.77 0L3.19 0L3.19-1.35M2.20-13.58L2.39-13.58L3.23-12.52L3.25 0L2.38 0L2.38-11.21Q2.38-12.18 2.29-12.88Q2.20-13.58 2.20-13.58M12.75-13.30L13.60-13.30L13.60-2.17Q13.60-1.56 13.64-1Q13.68-0.44 13.73-0.09Q13.78 0.27 13.78 0.27L13.60 0.27L12.75-0.74L12.75-13.30M13.55-13.30L15.12-13.30L15.12-13.11Q15.12-13.11 14.95-13.11Q14.78-13.11 14.78-13.11Q14.31-13.11 13.96-12.78Q13.62-12.45 13.60-11.95L13.55-11.95L13.55-13.30M11.21-13.11L11.21-13.30L12.79-13.30L12.79-11.95L12.75-11.95Q12.73-12.45 12.40-12.78Q12.06-13.11 11.57-13.11Q11.57-13.11 11.40-13.11Q11.23-13.11 11.21-13.11" fill="#000000" transform="translate(71.32 217.83) rotate(0.000) translate(-7.99 0)" />
      <path d="M2.60-13.30L3.84-13.30L3.84 0L2.60 0L2.60-13.30M2.60-1.39L2.66-1.39L2.66 0L1.14 0L1.14-0.19Q1.14-0.19 1.26-0.19Q1.39-0.19 1.39-0.19Q1.88-0.19 2.23-0.54Q2.58-0.89 2.60-1.39M2.66-13.30L2.66-11.91L2.60-11.91Q2.58-12.41 2.23-12.76Q1.88-13.11 1.39-13.11Q1.39-13.11 1.26-13.11Q1.14-13.11 1.14-13.11L1.14-13.30L2.66-13.30M3.78 0L3.78-1.39L3.84-1.39Q3.86-0.89 4.21-0.54Q4.56-0.19 5.05-0.19Q5.05-0.19 5.17-0.19Q5.28-0.19 5.30-0.19L5.30 0L3.78 0M3.84-11.91L3.78-11.91L3.78-13.30L5.30-13.30L5.30-13.11Q5.28-13.11 5.17-13.11Q5.05-13.11 5.05-13.11Q4.56-13.11 4.21-12.76Q3.86-12.41 3.84-11.91" fill="#000000" transform="translate(85.53 217.83) rotate(0.000) translate(-3.21 0)" />
      <path d="M4.77-13.57Q5.07-13.57 5.42-13.53Q5.78-13.49 6.11-13.42Q6.44-13.36 6.72-13.29Q6.99-13.22 7.14-13.15L7.14-11.04L6.97-11.04Q6.97-11.95 6.35-12.47Q5.72-13 4.83-13Q3.78-13 3.13-12.34Q2.49-11.69 2.49-10.81Q2.49-10.45 2.65-9.97Q2.81-9.48 3.25-9.06L6.99-5.60Q7.56-5.07 7.75-4.46Q7.94-3.86 7.94-3.29Q7.94-1.71 6.98-0.72Q6.02 0.27 4.39 0.27Q3.93 0.27 3.32 0.17Q2.70 0.08 2.12-0.16Q1.54-0.40 1.16-0.78Q1.10-1.08 1.10-1.54Q1.10-1.99 1.18-2.50Q1.25-3 1.39-3.42L1.56-3.42Q1.46-2.45 1.80-1.73Q2.15-1.01 2.80-0.64Q3.46-0.27 4.29-0.30Q5.34-0.36 6.09-1.04Q6.84-1.71 6.84-2.85Q6.84-3.40 6.65-3.85Q6.46-4.29 6.10-4.62L2.45-8Q1.88-8.53 1.65-9.17Q1.43-9.80 1.43-10.36Q1.43-11.15 1.80-11.89Q2.19-12.63 2.94-13.10Q3.69-13.57 4.77-13.57M5.70-13.38L7.14-13.38L7.14-12.98L5.70-12.98" fill="#000000" transform="translate(96.25 217.83) rotate(0.000) translate(-4.51 0)" />
      <path d="M5.26-13.24L6.50-13.24L6.50 0L5.26 0L5.26-13.24M0.38-13.32L11.38-13.32L11.38-12.75L0.38-12.75L0.38-13.32M10.07-12.81L11.38-12.81L11.38-11.27L11.19-11.29L11.19-11.61Q11.19-12.08 10.86-12.41Q10.53-12.73 10.07-12.75L10.07-12.81M11.38-13.66L11.38-13.11L9.06-13.32Q9.48-13.32 9.95-13.38Q10.41-13.43 10.81-13.51Q11.21-13.58 11.38-13.66M5.26-1.39L5.32-1.39L5.32 0L3.80 0L3.80-0.19Q3.80-0.19 3.92-0.19Q4.05-0.19 4.05-0.19Q4.54-0.19 4.89-0.54Q5.24-0.89 5.26-1.39M6.44 0L6.44-1.39L6.50-1.39Q6.52-0.89 6.87-0.54Q7.22-0.19 7.71-0.19Q7.71-0.19 7.84-0.19Q7.96-0.19 7.96-0.19L7.96 0L6.44 0M0.38-12.81L1.69-12.81L1.69-12.75Q1.22-12.73 0.89-12.41Q0.57-12.08 0.57-11.61L0.57-11.29L0.38-11.27L0.38-12.81M0.38-13.11L0.38-13.66Q0.57-13.58 0.96-13.51Q1.35-13.43 1.82-13.38Q2.30-13.32 2.70-13.32" fill="#000000" transform="translate(109.63 217.83) rotate(0.000) translate(-5.87 0)" />
      <path d="M3.59-13.30L6.27-13.30Q7.13-13.30 7.82-13.05Q8.51-12.81 8.99-12.34Q9.46-11.87 9.72-11.22Q9.97-10.56 9.97-9.73Q9.97-8.82 9.55-7.98Q9.12-7.14 8.39-6.62Q7.66-6.10 6.75-6.10Q7.07-5.97 7.45-5.56Q7.83-5.15 8.11-4.77Q8.11-4.77 8.37-4.40Q8.63-4.03 9.02-3.50Q9.40-2.96 9.80-2.45Q10.20-1.94 10.49-1.63Q10.87-1.22 11.25-0.89Q11.63-0.57 12.07-0.38Q12.52-0.19 13.07-0.19L13.07 0L12.03 0Q11.15 0 10.52-0.27Q9.88-0.53 9.44-0.92Q9.01-1.31 8.70-1.67Q8.64-1.75 8.39-2.11Q8.13-2.47 7.78-2.97Q7.43-3.48 7.09-3.97Q6.75-4.46 6.50-4.82Q6.25-5.17 6.21-5.22Q5.85-5.70 5.42-6.10Q4.98-6.50 4.46-6.50L4.46-6.69Q4.46-6.69 4.76-6.68Q5.05-6.67 5.47-6.69Q5.97-6.71 6.55-6.84Q7.14-6.97 7.66-7.39Q8.17-7.81 8.44-8.66Q8.49-8.87 8.53-9.19Q8.57-9.50 8.55-9.80Q8.53-11.10 7.89-11.87Q7.26-12.63 6.19-12.69Q5.66-12.73 5.10-12.72Q4.54-12.71 4.16-12.71Q3.78-12.71 3.78-12.71Q3.78-12.73 3.73-12.87Q3.69-13.01 3.64-13.16Q3.59-13.30 3.59-13.30M2.60-13.30L3.84-13.30L3.84 0L2.60 0L2.60-13.30M2.60-1.39L2.66-1.39L2.66 0L1.14 0L1.14-0.19Q1.14-0.19 1.26-0.19Q1.39-0.19 1.39-0.19Q1.88-0.19 2.23-0.54Q2.58-0.89 2.60-1.39M2.66-13.30L2.66-11.91L2.60-11.91Q2.58-12.41 2.23-12.76Q1.88-13.11 1.39-13.11Q1.39-13.11 1.26-13.11Q1.14-13.11 1.14-13.11L1.14-13.30L2.66-13.30M3.78 0L3.78-1.39L3.84-1.39Q3.84-0.89 4.20-0.54Q4.56-0.19 5.05-0.19Q5.05-0.19 5.17-0.19Q5.28-0.19 5.28-0.19L5.28 0" fill="#000000" transform="translate(124.93 217.83) rotate(0.000) translate(-6.43 0)" />
      <path d="M2.60-13.30L3.84-13.30L3.84 0L2.60 0L2.60-13.30M2.60-1.39L2.66-1.39L2.66 0L1.14 0L1.14-0.19Q1.14-0.19 1.26-0.19Q1.39-0.19 1.39-0.19Q1.88-0.19 2.23-0.54Q2.58-0.89 2.60-1.39M2.66-13.30L2.66-11.91L2.60-11.91Q2.58-12.41 2.23-12.76Q1.88-13.11 1.39-13.11Q1.39-13.11 1.26-13.11Q1.14-13.11 1.14-13.11L1.14-13.30L2.66-13.30M3.78 0L3.78-1.39L3.84-1.39Q3.86-0.89 4.21-0.54Q4.56-0.19 5.05-0.19Q5.05-0.19 5.17-0.19Q5.28-0.19 5.30-0.19L5.30 0L3.78 0M3.84-11.91L3.78-11.91L3.78-13.30L5.30-13.30L5.30-13.11Q5.28-13.11 5.17-13.11Q5.05-13.11 5.05-13.11Q4.56-13.11 4.21-12.76Q3.86-12.41 3.84-11.91" fill="#000000" transform="translate(137.58 217.83) rotate(0.000) translate(-3.21 0)" />
      <path d="M2.60-13.30L3.84-13.30L3.84 0L2.60 0L2.60-13.30M3.78-0.59L8.97-0.59L8.97 0L3.78 0L3.78-0.59M3.78-6.84L8.15-6.84L8.15-6.27L3.78-6.27L3.78-6.84M3.78-13.30L8.97-13.30L8.97-12.71L3.78-12.71L3.78-13.30M9.94-3.08L10.13-3.08L9.03 0L5.87 0L6.55-0.59Q7.56-0.59 8.20-0.90Q8.83-1.22 9.23-1.79Q9.63-2.36 9.94-3.08M7.05-6.31L8.15-6.31L8.15-5.05L7.96-5.05L7.96-5.34Q7.96-5.72 7.69-5.99Q7.43-6.27 7.05-6.27L7.05-6.31M7.96-8.06L8.15-8.06L8.15-6.80L7.05-6.80L7.05-6.84Q7.43-6.86 7.69-7.13Q7.96-7.41 7.96-7.79L7.96-8.06M7.66-12.77L8.97-12.77L8.97-11.25L8.78-11.25L8.78-11.59Q8.78-12.05 8.46-12.38Q8.13-12.71 7.66-12.73L7.66-12.77M8.97-13.64L8.97-13.09L6.65-13.30Q7.07-13.30 7.53-13.36Q8-13.41 8.40-13.49Q8.80-13.57 8.97-13.64M2.60-1.39L2.66-1.39L2.66 0L1.14 0L1.14-0.19Q1.14-0.19 1.26-0.19Q1.39-0.19 1.39-0.19Q1.88-0.19 2.23-0.54Q2.58-0.89 2.60-1.39M2.66-13.30L2.66-11.91L2.60-11.91Q2.60-12.41 2.24-12.76Q1.88-13.11 1.39-13.11Q1.39-13.11 1.27-13.11Q1.16-13.11 1.16-13.11L1.14-13.30" fill="#000000" transform="translate(149.27 217.83) rotate(0.000) translate(-5.48 0)" />
      <path d="M4.77-13.57Q5.07-13.57 5.42-13.53Q5.78-13.49 6.11-13.42Q6.44-13.36 6.72-13.29Q6.99-13.22 7.14-13.15L7.14-11.04L6.97-11.04Q6.97-11.95 6.35-12.47Q5.72-13 4.83-13Q3.78-13 3.13-12.34Q2.49-11.69 2.49-10.81Q2.49-10.45 2.65-9.97Q2.81-9.48 3.25-9.06L6.99-5.60Q7.56-5.07 7.75-4.46Q7.94-3.86 7.94-3.29Q7.94-1.71 6.98-0.72Q6.02 0.27 4.39 0.27Q3.93 0.27 3.32 0.17Q2.70 0.08 2.12-0.16Q1.54-0.40 1.16-0.78Q1.10-1.08 1.10-1.54Q1.10-1.99 1.18-2.50Q1.25-3 1.39-3.42L1.56-3.42Q1.46-2.45 1.80-1.73Q2.15-1.01 2.80-0.64Q3.46-0.27 4.29-0.30Q5.34-0.36 6.09-1.04Q6.84-1.71 6.84-2.85Q6.84-3.40 6.65-3.85Q6.46-4.29 6.10-4.62L2.45-8Q1.88-8.53 1.65-9.17Q1.43-9.80 1.43-10.36Q1.43-11.15 1.80-11.89Q2.19-12.63 2.94-13.10Q3.69-13.57 4.77-13.57M5.70-13.38L7.14-13.38L7.14-12.98L5.70-12.98" fill="#000000" transform="translate(162.26 217.83) rotate(0.000) translate(-4.51 0)" />
  </g>

</svg>
